<svg width="1920" height="1080" viewBox="0 0 1920 1080" fill="none" xmlns="http://www.w3.org/2000/svg">
<ellipse cx="1825" cy="89" rx="95" ry="89" fill="#4ADDDA"/>
<ellipse cx="95" cy="991" rx="95" ry="89" fill="#4ADDDA"/>
<path d="M317 890.5C317 946.005 267.304 991 206 991C144.696 991 95 946.005 95 890.5C95 834.995 144.696 790 206 790C267.304 790 317 834.995 317 890.5Z" fill="#2F7FF2"/>
<path d="M1841 178.5C1841 234.005 1791.3 279 1730 279C1668.7 279 1619 234.005 1619 178.5C1619 122.995 1668.7 78 1730 78C1791.3 78 1841 122.995 1841 178.5Z" fill="#2F7FF2"/>
</svg>
